<?xml version="1.0" standalone="no"?>
<!DOCTYPE svg PUBLIC "-//W3C//DTD SVG 20010904//EN"
 "http://www.w3.org/TR/2001/REC-SVG-20010904/DTD/svg10.dtd">
<svg version="1.0" xmlns="http://www.w3.org/2000/svg"
 width="1200.000000pt" height="1200.000000pt" viewBox="0 0 1200.000000 1200.000000"
 preserveAspectRatio="xMidYMid meet">

<g transform="translate(0.000000,1200.000000) scale(0.100000,-0.100000)"
fill="#000000" stroke="none">
<path d="M1330 10190 l0 -620 620 0 620 0 0 620 0 620 -620 0 -620 0 0 -620z
m1058 -2 l-3 -443 -440 0 -440 0 -3 430 c-1 237 0 436 3 443 3 9 102 12 445
12 l440 0 -2 -442z"/>
<path d="M1697 10452 c-16 -3 -17 -22 -15 -265 l3 -262 265 0 265 0 3 248 c1
137 -1 255 -6 263 -6 12 -51 15 -252 17 -135 1 -253 1 -263 -1z"/>
<path d="M2930 10635 l0 -175 -42 -2 c-24 -1 -54 -1 -68 -1 -14 1 -35 -1 -47
-3 l-23 -4 0 -530 0 -529 88 -3 87 -3 0 -85 0 -85 -85 -5 -85 -5 -5 -85 -5
-85 -175 0 -175 0 0 85 0 85 88 3 88 3 -3 87 -3 87 -440 0 -440 0 -3 -88 -3
-88 -87 3 -87 3 -5 85 -5 85 -82 3 -83 3 0 -181 0 -180 353 2 352 3 3 88 3 87
83 0 c78 0 84 -1 90 -22 3 -13 6 -94 6 -180 l0 -158 -90 0 -90 0 0 -175 0
-176 88 3 87 3 3 173 2 172 439 0 c391 0 440 -2 445 -16 3 -9 6 -87 6 -175 l0
-159 -90 0 -89 0 -3 88 -3 87 -235 3 c-129 2 -250 0 -268 -3 l-33 -6 3 -82 3
-82 85 -5 85 -5 3 -87 3 -88 -176 0 -175 0 0 -90 0 -90 -90 0 -90 0 0 -90 0
-90 -177 2 -178 3 -3 87 -3 87 88 3 88 3 0 85 0 85 -85 5 -85 5 -5 85 -5 85
-172 3 -173 2 0 -445 0 -445 85 0 85 0 0 -90 0 -90 -84 0 c-70 0 -85 -3 -88
-16 -2 -9 -1 -89 2 -178 l5 -161 83 -3 82 -3 0 -84 0 -85 178 -2 177 -3 3 -87
3 -88 89 0 90 0 0 -355 0 -355 -90 0 -90 0 0 85 0 85 -265 0 -265 0 0 -175 0
-175 175 0 175 0 0 84 c0 98 -2 96 106 96 l74 0 0 -90 0 -89 88 -3 87 -3 3
-87 3 -88 352 -2 352 -3 3 -87 3 -88 -178 -2 -178 -3 -3 -88 -3 -87 -172 2
-172 3 -5 85 -5 85 -87 3 -87 3 -3 87 -3 87 -85 0 -85 0 -3 -87 -3 -88 -89 0
-90 0 0 90 0 90 -85 0 -85 0 0 -90 0 -90 85 0 86 0 -3 -87 -3 -88 -82 -3 -82
-3 -3 -248 c-2 -136 -2 -255 0 -264 3 -15 23 -17 178 -17 l174 0 0 -265 0
-265 -172 -2 -173 -3 -3 -87 -3 -88 85 0 85 0 3 -87 3 -88 88 -3 87 -3 0 -89
0 -89 -87 -3 -88 -3 -3 -172 -2 -172 -83 -3 -82 -3 -3 -87 -3 -88 85 0 85 0 3
-87 3 -88 177 -3 177 -2 3 -88 3 -87 85 0 85 0 0 85 0 85 -87 3 -88 3 0 89 0
90 445 0 445 0 0 90 0 90 90 0 90 0 0 -180 0 -180 84 0 c98 0 96 -2 96 106 l0
74 175 0 175 0 0 -355 0 -355 -352 -2 -353 -3 -3 -349 c-2 -273 1 -351 10
-358 7 -4 48 -8 91 -8 l78 0 -3 -82 -3 -83 -85 -5 -85 -5 -3 -87 -3 -88 266 0
265 0 0 175 0 175 -175 0 -175 0 0 90 0 90 175 0 175 0 0 90 0 90 -175 0 -175
0 0 90 0 90 265 0 265 0 0 90 0 91 88 -3 87 -3 3 -87 3 -88 177 -2 177 -3 3
-267 2 -268 -89 0 -90 0 -3 87 -3 88 -88 3 -88 3 3 -88 3 -88 88 -3 87 -3 0
-174 0 -175 175 0 176 0 -3 88 -3 87 -82 3 -83 3 0 84 0 85 175 0 175 0 0 -85
0 -85 90 0 90 0 0 85 c0 74 -2 85 -17 86 -10 0 -51 0 -90 -1 l-73 -1 0 90 0
91 90 0 90 0 0 -90 0 -91 88 3 87 3 3 88 3 88 87 -3 87 -3 3 -262 2 -263 440
0 440 0 5 23 c3 12 5 52 3 87 l-3 65 -355 5 -355 5 0 80 0 80 265 5 265 5 0
85 0 85 -265 5 -265 5 0 85 0 85 88 3 88 3 -3 87 -3 87 -172 3 -173 2 0 -74
c0 -41 -3 -81 -6 -90 -5 -14 -31 -16 -180 -16 l-173 0 -3 88 -3 87 -85 0 -85
0 -3 -88 -3 -88 -87 3 -87 3 -5 175 -5 175 -172 3 -173 2 0 85 0 85 173 2 172
3 5 85 5 85 88 3 87 3 0 -176 0 -175 180 0 180 0 0 85 0 85 -74 0 c-108 0
-106 -2 -106 96 l0 84 -90 0 -90 0 0 180 0 180 90 0 89 0 3 -87 3 -88 85 -5
85 -5 5 -85 5 -85 85 -5 85 -5 3 -173 2 -172 175 0 175 0 0 175 0 174 -87 3
-88 3 0 85 0 85 88 3 88 3 -3 87 -3 87 -85 5 -85 5 0 85 0 85 88 3 87 3 0 84
0 84 88 3 87 3 5 355 5 355 88 3 87 3 0 -181 0 -180 85 0 c79 0 85 1 90 22 3
13 4 93 3 178 l-3 155 -87 3 -88 3 0 84 0 85 90 0 90 0 0 -85 0 -85 265 0 265
0 0 -90 0 -89 -87 -3 -88 -3 0 -85 0 -85 88 -3 88 -3 -3 -87 -3 -87 -87 -3
-88 -3 0 -174 0 -175 90 0 90 0 0 85 0 85 90 0 90 0 0 -85 0 -85 90 0 90 0 0
-270 0 -270 85 0 84 0 3 88 3 87 177 3 177 2 3 -87 3 -88 263 -3 262 -2 0 90
0 90 90 0 89 0 3 -87 3 -88 175 0 175 0 3 88 3 87 89 0 90 0 0 -265 0 -265
-180 0 -180 0 0 85 0 85 -90 0 -90 0 0 -85 0 -85 90 0 90 0 0 -180 0 -180 -90
0 -90 0 0 90 0 89 -87 3 -88 3 -3 173 -2 172 -355 0 -355 0 0 -85 0 -85 -175
0 -174 0 -3 83 -3 82 -85 5 -85 5 -5 265 -5 265 -85 0 -85 0 -5 -85 -5 -85
-352 -3 -353 -2 0 90 0 90 85 0 c98 0 98 0 93 110 l-3 65 -175 0 -175 0 -3
-177 -2 -178 90 0 90 0 0 -265 0 -264 -87 -3 -88 -3 -3 -177 -2 -178 265 0
265 0 2 -352 3 -353 87 -3 87 -3 3 88 3 88 88 3 87 3 0 -91 0 -91 88 3 87 3 3
87 3 87 87 3 87 3 3 82 3 83 84 0 84 0 3 -82 3 -83 87 -3 87 -3 3 -87 3 -87
88 -3 87 -3 0 91 0 90 90 0 90 0 0 -90 0 -90 175 0 176 0 -3 88 -3 87 -172 3
-173 2 0 175 0 175 90 0 89 0 3 -88 3 -87 150 -3 c207 -4 195 -10 195 93 l0
85 90 0 89 0 3 -87 3 -88 88 -3 87 -3 0 -84 0 -84 -87 -3 -88 -3 -3 -88 -3
-88 88 3 88 3 3 88 3 87 89 0 90 0 0 -90 0 -90 85 0 86 0 -3 88 -3 87 -82 3
-83 3 0 84 0 85 159 0 c88 0 166 3 175 6 13 5 16 23 16 90 l0 83 88 3 87 3 3
353 2 352 90 0 90 0 0 -265 0 -264 88 -3 87 -3 3 -169 c2 -129 -1 -171 -10
-178 -7 -4 -48 -8 -90 -8 l-78 0 0 -85 0 -84 88 -3 87 -3 3 -87 3 -88 84 0 85
0 2 263 3 262 87 3 87 3 3 -88 3 -88 88 -3 87 -3 0 -84 0 -85 180 0 180 0 0
-90 0 -90 175 0 176 0 -3 88 -3 87 -172 3 -173 2 0 85 0 85 163 0 c89 0 168 4
174 8 9 6 13 75 15 267 l3 260 88 3 88 3 -3 87 -3 87 -175 0 -175 0 -3 -268
-2 -267 -85 0 -85 0 0 -90 0 -90 -180 0 -180 0 0 90 0 89 88 3 87 3 3 353 2
352 74 0 c108 0 106 -2 106 96 l0 84 175 0 174 0 3 -87 3 -88 65 -3 c110 -5
110 -5 110 93 l0 85 -90 0 -90 0 0 90 0 89 -87 3 -88 3 0 175 0 175 87 3 87 3
3 -88 3 -88 88 -3 88 -3 -3 88 -3 88 -87 3 -88 3 0 84 0 85 74 0 c41 0 81 3
90 6 14 5 16 31 16 180 l0 174 -265 0 -264 0 -3 88 -3 87 -88 3 -88 3 3 87 3
87 85 5 85 5 3 83 3 82 174 0 175 0 0 -85 0 -84 -87 -3 -88 -3 0 -85 0 -85 88
-3 87 -3 0 91 0 90 90 0 90 0 0 265 0 265 -90 0 -89 0 -3 88 -3 87 -352 3
-352 2 -3 88 -3 87 -85 0 -85 0 0 -85 0 -85 87 -3 87 -3 3 -87 3 -87 175 -5
175 -5 0 -85 0 -85 -87 -3 -88 -3 0 -83 c0 -98 2 -96 -106 -96 l-74 0 0 -85 0
-85 -90 0 -90 0 0 85 0 85 -175 0 -175 0 0 -175 0 -174 -87 -3 -88 -3 -5 -85
-5 -85 -87 -3 -87 -3 -3 88 -3 88 -87 3 -87 3 -3 87 -3 87 -85 0 -85 0 -3 -87
-3 -88 -175 0 -175 0 3 88 3 87 85 5 85 5 0 80 0 80 -177 3 -178 2 0 -265 0
-265 265 0 265 0 0 90 0 90 90 0 89 0 3 -87 3 -88 87 -3 87 -3 3 -87 3 -87
350 0 350 0 3 88 3 87 -176 0 -175 0 0 90 0 90 263 -2 262 -3 5 -265 5 -265
88 -3 87 -3 0 -84 0 -84 -87 -3 -88 -3 -3 -87 -3 -88 91 0 90 0 0 -90 0 -90
-267 2 -268 3 -3 88 -3 87 -84 0 -84 0 -3 88 -3 87 -177 3 -178 2 0 85 0 85
-90 0 -90 0 0 90 0 91 -87 -3 -88 -3 0 -85 0 -85 88 -3 87 -3 0 -174 0 -174
-87 -3 -88 -3 -3 -87 -3 -88 -84 0 -85 0 -2 178 -3 177 -85 0 -85 0 -5 -85 -5
-85 -87 -3 -87 -3 -3 88 -3 88 -175 5 -175 5 -3 82 -3 83 178 2 178 3 3 88 3
87 -181 0 -181 0 3 88 3 87 88 3 87 3 -2 177 -3 177 -87 3 -88 3 0 84 0 84 88
3 87 3 3 177 2 178 268 2 267 3 0 85 0 85 -87 3 -88 3 0 89 0 90 175 0 175 0
0 85 0 85 90 0 90 0 0 -175 0 -174 -87 -3 -88 -3 0 -175 0 -175 87 -3 87 -3 3
-87 3 -87 88 -3 87 -3 0 -84 0 -85 90 0 90 0 0 85 0 85 -90 0 -90 0 0 90 0 89
88 3 87 3 3 88 3 87 174 0 174 0 3 -87 3 -88 85 0 85 0 3 88 3 87 -91 0 -90 0
2 443 3 442 87 3 87 3 3 -88 3 -88 175 0 175 0 5 265 5 265 173 3 172 2 0 -90
0 -90 -85 0 -85 0 0 -180 0 -180 85 0 85 0 0 -90 0 -90 -175 0 -175 0 0 -85 0
-85 175 0 175 0 0 85 0 84 88 3 87 3 0 355 0 355 -87 3 -88 3 0 84 0 85 -172
2 -173 3 -5 175 -5 175 -442 3 -443 2 0 -265 0 -265 -90 0 -90 0 0 175 0 176
-87 -3 -88 -3 -3 -173 -2 -173 -88 3 -87 3 -3 263 -2 262 -85 0 -84 0 -3 -87
-3 -88 -87 -3 -87 -3 -3 88 -3 88 -87 3 -87 3 -3 87 -3 87 -88 3 -88 3 3 87 3
87 245 3 c135 1 255 0 268 -3 21 -5 22 -11 22 -90 l0 -85 85 0 84 0 3 88 3 87
88 3 87 3 0 -91 0 -90 90 0 90 0 0 90 0 90 90 0 90 0 0 85 0 84 88 3 87 3 3
88 3 87 174 0 174 0 3 -87 3 -88 85 0 85 0 3 87 3 87 87 3 87 3 3 353 2 352
-90 0 -90 0 0 -355 0 -355 -90 0 -90 0 0 90 0 90 -175 0 -175 0 0 -90 0 -90
-177 2 -178 3 -3 178 -2 177 90 0 90 0 0 90 0 90 163 0 c89 0 167 -4 174 -8 7
-5 13 -39 15 -87 l3 -80 88 -3 87 -3 0 175 0 176 -172 2 -173 3 -5 85 -5 85
-265 5 -265 5 0 85 0 85 265 5 265 5 3 88 3 87 84 0 84 0 3 88 3 87 88 3 87 3
0 -90 0 -90 88 -3 87 -3 3 -87 3 -87 -88 -3 -88 -3 0 -85 0 -85 175 0 175 0 5
265 5 265 150 3 c207 4 195 10 195 -93 l0 -85 -85 0 -85 0 0 -90 0 -90 85 0
84 0 3 -87 3 -88 87 -3 87 -3 3 -87 3 -87 85 0 85 0 3 88 3 87 -91 0 -90 0 0
535 0 534 -87 3 -88 3 -3 88 -3 87 -442 -2 -442 -3 0 -175 0 -175 88 -3 87 -3
0 -89 0 -90 -175 0 -174 0 -3 -82 -3 -83 -85 -5 -85 -5 -3 -87 -3 -88 -267 -2
-267 -3 -3 -177 -2 -178 -85 0 -85 0 -2 178 -3 177 -175 0 -175 0 -3 -87 -3
-87 88 -3 88 -3 3 -87 3 -88 -91 0 -91 0 3 -87 3 -88 88 -3 87 -3 0 -84 0 -84
88 -3 87 -3 3 -87 3 -88 84 0 84 0 3 -87 3 -88 88 -3 87 -3 0 -180 0 -180 -87
3 -88 3 -3 88 -3 87 -84 0 -84 0 -3 88 -3 87 -87 3 -87 3 -3 87 -3 87 -87 3
-88 3 0 83 c0 98 2 96 -106 96 l-74 0 0 85 0 84 -87 3 -88 3 -3 88 -3 87 91 0
90 0 0 90 0 91 -87 -3 -88 -3 -3 -87 -3 -88 -84 0 -85 0 0 -175 0 -174 83 -3
82 -3 5 -85 5 -85 178 -3 177 -2 0 -90 0 -89 -87 -3 -88 -3 -3 -87 -3 -88 -89
0 -90 0 0 90 0 90 -85 0 -85 0 0 -90 0 -90 85 0 86 0 -3 -87 -3 -88 -82 -3
-83 -3 0 -84 0 -84 83 -3 82 -3 3 -87 3 -88 -86 0 -85 0 0 -90 0 -90 -180 0
-179 0 -3 88 -3 87 -87 3 -88 3 0 89 0 90 180 0 180 0 0 85 0 85 -180 0 -181
0 3 88 3 87 175 5 175 5 0 85 0 85 -265 5 -265 5 0 175 0 175 178 3 177 2 0
-90 0 -91 88 3 87 3 0 85 0 85 -87 3 -88 3 0 84 0 84 88 3 87 3 0 85 0 85 -87
3 -88 3 0 -91 0 -91 -87 3 -88 3 -3 88 -3 87 -89 0 -90 0 0 90 0 90 -85 0 -84
0 -3 88 -3 87 -85 0 -85 0 -3 -87 -3 -88 91 0 90 0 0 -90 0 -90 85 0 86 0 -3
-87 -3 -88 -82 -3 -83 -3 -2 -262 -3 -262 -87 -3 -88 -3 -2 178 -3 178 -177 3
-178 2 0 85 0 85 178 2 177 3 0 85 0 85 -265 0 -265 0 0 -260 0 -260 175 -5
175 -5 3 -87 3 -87 -88 -3 -88 -3 -3 -177 -2 -178 -355 0 -355 0 0 -85 0 -85
-177 -2 -178 -3 -3 -177 -2 -178 -175 0 -175 0 0 -90 0 -90 -90 0 -89 0 -3
-87 -3 -88 -87 -3 -88 -3 0 91 0 90 -175 0 -175 0 0 90 0 90 85 0 84 0 3 88 3
87 85 0 85 0 5 -85 5 -85 85 0 85 0 3 178 2 178 88 -3 87 -3 3 -88 3 -88 87 3
87 3 3 263 2 262 85 0 84 0 3 -87 3 -88 85 0 85 0 3 88 3 87 -91 0 -90 0 0 90
0 90 90 0 89 0 3 88 3 87 88 3 88 3 -3 87 -3 87 -87 3 -88 3 0 84 0 85 180 0
180 0 0 -85 0 -86 88 3 87 3 0 80 0 80 -87 3 -88 3 0 89 0 89 88 3 87 3 3 65
c5 110 5 110 -93 110 l-85 0 -2 178 -3 177 -85 0 -85 0 -3 -177 -2 -178 -90 0
-90 0 -2 178 -3 177 -65 3 c-35 2 -75 0 -87 -3 l-23 -5 2 -173 3 -172 88 -3
87 -3 0 -180 0 -180 -87 3 -88 3 -3 88 -3 87 -84 0 -85 0 0 78 c0 42 -4 83 -8
90 -7 9 -49 12 -178 10 l-169 -3 -5 -175 -5 -175 -85 0 -85 0 -3 88 -3 88 -87
-3 -87 -3 -3 -172 -2 -173 -85 0 -85 0 0 159 c0 88 -3 166 -6 175 -5 13 -23
16 -90 16 l-84 0 0 -175 0 -174 88 -3 87 -3 0 -175 0 -175 -87 -3 -87 -3 -3
88 -3 88 -87 3 -88 3 -2 352 -3 352 -87 3 -88 3 0 174 c0 202 -8 189 110 183
l65 -3 3 -88 3 -88 87 3 87 3 3 80 c2 48 8 82 15 87 19 12 142 9 155 -4 8 -8
12 -63 12 -180 l0 -168 175 0 175 0 -2 178 -3 177 -88 3 -88 3 3 82 3 82 175
5 175 5 3 87 3 88 -178 2 -178 3 -3 88 -3 87 91 0 90 0 0 90 0 90 90 0 90 0 0
88 0 88 90 2 90 2 0 -180 0 -180 175 0 174 0 3 -87 3 -88 85 0 85 0 3 88 3 88
87 -3 87 -3 5 -175 5 -175 85 0 85 0 3 178 2 177 175 0 174 0 3 -87 3 -88 178
-3 177 -2 0 -90 0 -90 -90 0 -90 0 2 -262 3 -263 88 -3 87 -3 0 266 0 265 90
0 90 0 0 -85 0 -86 88 3 87 3 0 80 0 80 -87 3 -87 3 -3 87 -3 87 -88 3 -88 3
3 87 3 87 85 5 85 5 3 353 2 352 90 0 90 0 0 -355 0 -355 85 0 84 0 3 -87 3
-88 88 -3 87 -3 0 91 0 90 -90 0 -91 0 3 88 3 87 88 3 87 3 0 89 0 89 -87 3
-88 3 0 80 0 80 88 3 87 3 0 -84 c0 -99 0 -99 111 -90 l69 6 0 83 0 84 90 0
90 0 0 -85 0 -85 68 -2 c37 0 77 0 90 1 22 2 23 0 20 -86 l-3 -88 -175 -5
-175 -5 -3 -87 -3 -88 178 -2 178 -3 5 -175 5 -175 80 0 80 0 5 85 5 85 177 3
177 2 3 -87 3 -88 88 -3 87 -3 0 -84 0 -85 175 0 175 0 0 85 0 84 -82 3 -83 3
-3 88 -3 87 86 0 85 0 0 90 0 90 -175 0 -174 0 -3 -87 -3 -88 -87 -3 -87 -3
-3 88 -3 88 -175 5 -175 5 0 175 0 175 60 2 c33 1 72 2 88 2 l27 1 0 85 0 85
90 0 90 0 0 -175 0 -175 178 2 177 3 3 88 3 87 84 0 85 0 0 85 0 85 90 0 90 0
0 -175 0 -175 90 0 90 0 0 -90 0 -89 -87 -3 -88 -3 -3 -262 -2 -263 90 0 90 0
0 85 0 85 178 2 177 3 0 85 0 85 -175 5 -175 5 -3 87 -3 87 88 3 88 3 0 85 0
85 -87 3 -88 3 0 444 0 445 90 0 90 0 0 -90 0 -91 88 3 87 3 0 85 0 85 -87 3
-88 3 0 174 0 174 -87 3 -88 3 -3 88 -3 88 -87 -3 -87 -3 -5 -85 -5 -85 -85
-5 -85 -5 -3 -74 c-2 -41 1 -78 7 -84 5 -5 83 -11 173 -13 89 -2 166 -4 171
-4 4 0 7 -38 7 -85 l0 -84 -87 -3 -88 -3 -3 -177 -2 -177 -88 -3 -87 -3 -3
-87 -3 -88 -84 0 -84 0 -3 88 -3 87 -87 3 -88 3 0 89 0 90 175 0 175 0 0 90 0
90 -355 0 -356 0 3 88 3 87 45 1 c25 1 64 2 88 2 l42 2 0 85 0 84 -87 3 -88 3
-3 88 -3 87 -442 -2 -442 -3 0 -85 0 -85 178 -3 177 -2 0 -85 c0 -74 -2 -85
-17 -86 -10 -1 -49 -2 -88 -3 l-70 -1 -3 -177 -2 -178 90 0 90 0 0 -90 0 -90
-355 0 -354 0 -3 88 -3 87 -442 3 -443 2 0 90 0 90 175 0 175 0 0 175 0 175
90 0 90 0 0 -85 0 -85 90 0 90 0 0 85 0 85 173 2 172 3 3 88 3 87 -176 0 -175
0 0 -90 0 -90 -90 0 -90 0 0 90 0 90 -265 0 -265 0 0 -90 0 -90 85 0 85 0 0
-85 0 -85 -47 -1 c-27 -1 -64 -2 -83 -3 l-35 -1 -3 -87 -3 -88 -89 0 -89 0 -3
88 -3 87 -70 1 c-109 2 -105 6 -105 -92 l0 -84 90 0 91 0 -3 -87 -3 -88 -268
-3 -268 -2 3 87 3 88 88 3 87 3 0 264 0 265 -175 0 -175 0 0 -169 c0 -125 -3
-172 -12 -178 -15 -9 -255 -14 -310 -6 l-38 6 0 83 0 84 -90 0 -90 0 0 -85 0
-85 -37 -2 c-21 0 -56 -2 -78 -3 -22 -1 -46 -2 -52 -3 -9 -1 -13 -27 -13 -87
l0 -85 -85 0 -85 0 0 71 c0 98 -9 111 -73 109 -29 -2 -64 -2 -79 -1 l-28 1 -2
173 -3 172 -87 3 -87 3 -3 -88 -3 -88 -85 0 -85 0 -3 88 -3 88 -87 -3 -87 -3
-5 -85 -5 -85 -80 0 -80 0 -2 55 c-2 30 -5 70 -8 88 l-6 32 -84 0 -85 0 0
-175z m4800 -180 l0 -175 90 0 89 0 3 -87 3 -88 85 -5 85 -5 0 -85 0 -85 -85
-5 -85 -5 -3 -87 -3 -88 -89 0 -90 0 0 -84 c0 -58 -4 -85 -12 -88 -11 -3 -85
-3 -140 1 -16 1 -18 12 -18 86 l0 85 -90 0 -90 0 0 90 0 90 90 0 90 0 0 90 0
90 -90 0 -90 0 0 179 0 179 81 1 c45 1 86 4 90 7 5 3 9 41 9 85 l0 79 85 0 85
0 0 -175z m-4272 -89 l3 -86 177 -2 177 -3 0 -85 0 -85 -85 -5 -85 -5 0 -85 0
-85 175 0 175 0 3 88 3 87 84 0 85 0 0 90 0 91 88 -3 87 -3 3 -87 3 -88 177
-2 177 -3 3 -87 3 -88 89 0 90 0 0 90 0 90 85 0 85 0 0 -90 0 -90 180 0 180 0
0 -90 0 -90 90 0 90 0 0 -175 0 -175 -177 -2 -178 -3 -3 -87 -3 -88 -89 0 -90
0 0 355 0 355 -85 0 -85 0 -2 -172 -3 -173 -55 -6 c-30 -4 -70 -5 -87 -2 l-33
5 0 174 0 174 -180 0 -180 0 0 -90 0 -90 90 0 90 0 0 -85 c0 -74 -2 -85 -17
-86 -10 0 -51 0 -90 1 l-73 1 0 -90 0 -91 -90 0 -90 0 0 -90 0 -90 -85 0 -85
0 0 90 0 90 -90 0 -90 0 0 -180 0 -180 85 0 c98 0 98 0 93 -110 l-3 -65 -85 0
-85 0 -3 88 -3 87 -177 -2 -177 -3 -5 -85 -5 -85 -85 0 -85 0 -3 88 -3 87 -84
0 -85 0 0 90 0 90 85 0 85 0 0 90 0 90 -85 0 -85 0 0 91 0 90 28 -2 c15 -1 53
-1 84 -1 l58 2 2 173 3 172 85 5 85 5 3 87 3 87 -88 3 -88 3 -3 88 -3 87 -84
0 -85 0 0 84 c0 58 4 86 13 89 6 2 84 3 172 1 l160 -2 3 -86z m-353 -298 c4
-18 5 -58 3 -88 l-3 -55 -87 -3 -88 -3 0 91 0 90 85 0 84 0 6 -32z m3205 -413
l0 -265 -265 0 -265 0 0 265 0 265 265 0 265 0 0 -265z m-3206 69 c12 -31 7
-154 -6 -155 -21 -2 -111 -2 -140 0 l-28 1 0 85 0 85 84 0 c67 0 85 -3 90 -16z
m5346 -69 c0 -69 -3 -85 -15 -86 -8 0 -37 0 -65 0 -111 0 -100 -10 -100 86 l0
85 90 0 90 0 0 -85z m1415 -535 l0 -85 -87 -3 -88 -3 0 84 c0 46 3 87 7 91 4
4 43 5 88 4 l80 -3 0 -85z m360 -90 l0 -175 -85 0 -85 0 -3 178 -2 178 87 -3
88 -3 0 -175z m-355 -265 l0 -85 -90 0 -90 0 0 85 0 85 90 0 90 0 0 -85z
m-6588 -352 l3 -88 88 -3 88 -3 -3 -87 -3 -87 -85 -5 -85 -5 -5 -85 -5 -85
-80 0 -80 0 -5 85 -5 85 -87 3 -88 3 0 89 0 89 88 3 87 3 3 88 3 87 84 0 84 0
3 -87z m-537 -183 l0 -85 -87 -3 -87 -3 -3 -87 -3 -87 -85 -5 -85 -5 -3 -82
-3 -82 88 -3 88 -3 3 -87 3 -88 179 0 180 0 0 84 c0 67 3 85 16 90 28 11 140
6 152 -6 7 -7 12 -43 12 -90 l0 -78 265 0 265 0 -2 -177 -3 -178 -85 0 -85 0
-3 88 -3 88 -87 -3 -87 -3 -3 -87 -3 -88 -174 0 -175 0 0 90 0 91 -87 -3 -88
-3 -5 -85 -5 -85 -175 -5 -175 -5 -3 -82 c-2 -46 -2 -84 0 -85 2 -1 163 -5
358 -8 l355 -5 3 -82 3 -82 82 -3 82 -3 3 -177 2 -178 90 0 90 0 0 -90 0 -90
90 0 90 0 0 90 0 90 90 0 91 0 -3 88 -3 87 -177 3 -178 2 0 175 0 175 90 0 90
0 0 -85 0 -85 178 -2 177 -3 3 -177 2 -178 -90 0 -90 0 0 -90 0 -90 90 0 90 0
0 -175 0 -175 85 0 84 0 3 83 3 82 88 3 87 3 0 -85 0 -85 88 -3 87 -3 3 -88 3
-88 87 3 87 3 5 85 5 85 65 3 c35 2 75 0 87 -3 l23 -5 -2 -353 -3 -352 -87 -3
-88 -3 0 -84 0 -85 -90 0 -90 0 0 175 0 174 -87 3 -88 3 0 85 0 85 85 5 85 5
3 88 3 87 -91 0 -90 0 0 90 0 90 -90 0 -90 0 0 -270 0 -270 -85 0 -84 0 -3 88
-3 87 -87 3 -88 3 0 354 0 355 -90 0 -90 0 0 -175 0 -175 -74 0 c-108 0 -106
2 -106 -96 l0 -83 -87 -3 -88 -3 -3 -87 -3 -88 90 0 91 0 2 -177 3 -178 178
-3 177 -2 0 -85 0 -84 88 -3 87 -3 3 -155 c1 -85 0 -165 -3 -177 -5 -22 -11
-23 -90 -23 l-84 0 -3 88 -3 87 -85 0 -85 0 0 -175 0 -175 175 -5 175 -5 5
-85 5 -85 173 -3 172 -2 0 -85 0 -85 -265 0 -265 0 0 -90 0 -89 88 -3 87 -3 3
-177 2 -178 85 0 85 0 2 178 3 177 175 0 175 0 3 -87 3 -87 87 -3 87 -3 0 -85
0 -85 -87 -3 -88 -3 0 -89 0 -90 265 0 265 0 0 90 0 90 -85 0 -85 0 -2 178 -3
177 -87 3 -88 3 0 89 0 90 -90 0 -90 0 0 85 0 85 90 0 90 0 0 -85 0 -85 263
-2 262 -3 3 -177 2 -177 -87 -3 -88 -3 -3 -87 -3 -88 91 0 90 0 0 -90 0 -90
-90 0 -90 0 0 -85 0 -85 -172 -2 -173 -3 -5 -85 -5 -85 -87 -3 -88 -3 0 176 0
175 -90 0 -90 0 0 -175 0 -176 -87 3 -88 3 -5 85 -5 85 -170 0 -170 0 -5 -85
-5 -85 -178 -3 -178 -2 3 87 3 88 88 3 87 3 0 84 0 85 -77 0 c-43 0 -84 4 -91
8 -9 7 -12 49 -10 178 l3 169 175 5 175 5 3 88 3 87 -181 0 -180 0 0 265 0
266 -87 -3 -88 -3 -5 -85 -5 -85 -80 0 -80 0 -3 178 -2 177 175 0 175 0 -2
178 -3 177 -85 5 -85 5 -3 263 -2 262 -85 0 -84 0 -3 -87 -3 -88 -87 -3 -88
-3 0 -89 0 -89 88 -3 87 -3 0 -170 0 -170 -87 -3 -88 -3 0 175 0 175 -87 3
-88 3 -3 88 -3 87 90 0 91 0 2 178 3 177 85 5 85 5 3 73 c2 46 -2 79 -9 88 -8
10 -35 14 -90 14 l-79 0 0 85 0 84 88 3 87 3 3 88 3 87 84 0 85 0 0 90 0 90
-175 0 -175 0 -2 178 -3 177 -65 3 c-117 6 -109 18 -112 -181 l-3 -172 -262
-3 -263 -2 0 90 0 90 -90 0 -90 0 0 175 0 175 85 0 c98 0 98 0 93 110 l-3 65
-87 3 -88 3 0 179 0 180 -180 0 -180 0 0 84 c0 67 3 85 16 90 9 3 90 6 180 6
l164 0 0 85 0 84 88 3 87 3 3 88 3 87 174 0 175 0 0 90 0 91 88 -3 87 -3 0
-85z m2143 -177 l-3 -88 -85 0 -85 0 -3 88 -3 87 91 0 91 0 -3 -87z m3562 -3
l0 -90 175 0 175 0 0 -85 0 -85 90 0 90 0 0 85 0 85 90 0 90 0 0 -85 0 -85
-90 0 -90 0 0 -90 0 -90 -90 0 -90 0 0 90 0 90 -175 0 -175 0 0 85 0 85 -90 0
-90 0 0 90 0 90 90 0 90 0 0 -90z m-3742 -352 l3 -88 174 0 175 0 0 -90 0 -90
-265 0 -265 0 0 -90 0 -89 88 -3 87 -3 0 -85 0 -85 -87 -3 -88 -3 0 -84 0 -85
-90 0 -90 0 0 85 0 85 90 0 90 0 0 90 0 89 -87 3 -88 3 -3 87 -3 87 -87 3 -87
3 0 85 0 85 85 0 85 0 3 -87 3 -88 89 0 90 0 0 173 c0 96 3 177 7 181 4 4 43
5 88 4 l80 -3 3 -87z m-2853 -448 l0 -175 -85 0 -85 0 -3 87 -3 87 -87 3 -87
3 -3 88 -3 87 178 -2 178 -3 0 -175z m4635 90 l0 -89 88 -3 87 -3 0 -85 0 -85
-87 -3 -88 -3 0 -84 0 -85 175 0 174 0 3 83 3 82 88 3 87 3 0 -86 0 -85 -90 0
-90 0 0 -90 0 -90 -85 0 -85 0 0 -90 0 -90 175 0 174 0 3 -87 3 -88 175 -5
175 -5 3 -87 3 -88 174 0 175 0 0 -175 0 -175 90 0 89 0 3 88 3 87 245 3 c135
1 255 0 268 -3 22 -5 22 -6 20 -178 l-3 -172 -87 -3 -88 -3 0 -264 0 -265 -90
0 -90 0 0 -90 0 -89 -87 -3 -88 -3 -3 -87 -3 -88 -174 0 -175 0 0 -90 0 -90
85 0 85 0 0 -90 0 -91 -82 3 -83 3 -3 88 -3 87 -89 0 -89 0 -3 -87 -3 -88
-175 0 -175 0 -3 88 -3 87 -89 0 -89 0 -3 -87 -3 -88 -82 -3 -83 -3 0 -264 0
-265 85 0 85 0 2 178 3 177 85 0 85 0 3 -87 3 -88 89 0 89 0 3 88 3 87 85 0
85 0 3 -88 3 -87 89 0 89 0 3 88 3 87 83 3 82 3 0 -91 0 -90 -85 0 -85 0 0
-180 0 -180 85 0 85 0 0 -90 0 -90 -85 0 -84 0 -3 -82 -3 -83 -87 -3 -88 -3 0
-89 0 -90 175 0 175 0 0 -90 0 -90 -175 0 -175 0 0 90 0 90 -90 0 -91 0 3 88
3 87 88 3 87 3 0 84 0 85 -180 0 -180 0 0 -175 0 -176 -87 3 -88 3 -5 85 -5
85 -82 3 -83 3 0 84 0 85 -90 0 -90 0 -2 178 -3 177 -87 3 -88 3 0 89 0 89 88
3 87 3 0 85 0 85 -87 3 -88 3 0 174 0 175 -90 0 -89 0 -3 -87 -3 -88 -172 -3
-173 -2 0 90 0 90 -90 0 -90 0 0 -90 0 -90 -177 2 -178 3 -3 177 -2 177 -88 3
-87 3 -3 88 -3 87 -84 0 -85 0 0 175 0 175 85 0 85 0 0 445 0 445 -172 2 -173
3 -3 88 -3 87 176 0 175 0 0 90 0 90 90 0 89 0 3 88 3 87 175 0 175 0 0 -85 0
-85 -85 -5 -85 -5 -3 -87 -3 -87 88 -3 88 -3 0 -260 0 -260 -175 -5 -175 -5 0
-85 0 -85 85 -5 85 -5 0 -85 0 -85 -87 -3 -87 -3 -3 -87 -3 -87 -88 -3 -88 -3
3 -82 3 -82 175 -5 175 -5 3 -178 2 -178 88 3 87 3 5 175 5 175 173 3 172 2 0
85 0 84 -82 3 -83 3 -3 178 -2 177 84 0 85 0 3 -87 3 -88 87 -3 87 -3 3 -87 3
-87 88 -3 87 -3 0 -84 0 -85 90 0 90 0 0 175 0 174 -87 3 -88 3 -3 88 -3 87
91 0 90 0 0 90 0 90 90 0 91 0 -3 88 -3 87 -87 3 -88 3 -2 262 -3 262 -353 3
-352 2 2 178 3 177 173 3 172 2 0 85 0 84 88 3 87 3 3 178 2 177 90 0 90 0 0
-90z m-2320 -265 l0 -175 -85 0 -85 0 0 175 0 175 85 0 85 0 0 -175z m3918 88
l-3 -88 -85 0 -85 0 -3 88 -3 87 91 0 91 0 -3 -87z m360 0 l-3 -88 -85 0 -85
0 -3 88 -3 87 91 0 91 0 -3 -87z m532 -178 l0 -85 -90 0 -90 0 0 85 0 85 90 0
90 0 0 -85z m-1250 -535 l0 -90 -85 0 -85 0 0 90 0 90 85 0 85 0 0 -90z
m-4980 -355 l0 -265 -265 0 -265 0 0 265 0 265 265 0 265 0 0 -265z m3560 0
l0 -265 -265 0 -265 0 0 265 0 265 265 0 265 0 0 -265z m1778 178 l-3 -88 -85
0 -85 0 -3 74 c-2 41 -1 80 2 88 4 9 29 13 91 13 l86 0 -3 -87z m1782 -178 l0
-265 -265 0 -265 0 0 265 0 265 265 0 265 0 0 -265z m-715 -355 l0 -85 -177
-3 -178 -2 0 -90 0 -90 178 -2 177 -3 3 -87 3 -87 87 -3 87 -3 0 -170 0 -170
-87 -3 -88 -3 0 -89 0 -90 -90 0 -91 0 3 88 3 87 88 3 87 3 0 174 0 175 -180
0 -180 0 0 90 0 90 -90 0 -90 0 0 -90 0 -91 -82 3 -83 3 -3 88 -3 87 85 0 85
0 3 88 3 87 88 3 87 3 0 83 c0 45 3 86 7 90 4 3 84 5 177 4 l171 -3 0 -85z
m-7295 -535 l0 -265 90 0 89 0 3 88 3 87 73 3 c46 2 79 -2 88 -9 10 -8 14 -35
14 -90 l0 -79 175 0 175 0 0 90 0 90 -90 0 -90 0 0 85 0 85 90 0 90 0 0 -85 0
-84 88 -3 87 -3 3 -87 3 -88 -91 0 -90 0 0 -90 0 -89 -87 -3 -88 -3 -3 -87 -3
-88 91 0 90 0 0 -90 0 -90 90 0 90 0 0 90 0 91 88 -3 87 -3 0 -85 0 -85 -87
-3 -88 -3 0 -84 0 -85 263 -2 262 -3 3 -87 3 -88 -266 0 -265 0 0 90 0 90 -90
0 -90 0 0 -90 0 -91 -87 3 -88 3 -3 79 c-2 57 1 82 10 87 7 5 48 9 91 9 l77 0
0 85 0 85 -74 0 c-108 0 -106 -2 -106 96 l0 84 -85 0 -85 0 0 180 0 180 -90 0
-90 0 -2 -177 -3 -178 -85 0 -85 0 -5 85 -5 85 -87 3 -88 3 0 354 0 355 90 0
90 0 0 -265z m2848 -357 l3 -87 87 -3 87 -3 3 -65 c5 -111 5 -111 -91 -108
l-82 3 -3 88 -3 87 -89 0 -89 0 -3 -87 -3 -88 -175 0 -175 0 -3 165 c-1 90 0
170 2 177 4 11 59 13 268 11 l263 -3 3 -87z m5872 -178 l0 -91 -87 3 -88 3 -3
74 c-2 41 -1 80 2 88 4 9 28 13 91 13 l85 0 0 -90z m-8362 -425 c4 -207 10
-195 -93 -195 l-85 0 0 -90 0 -90 353 -2 352 -3 5 -85 5 -85 88 -3 87 -3 0 91
0 90 175 0 175 0 0 -90 0 -90 -175 0 -175 0 0 -90 0 -89 88 -3 87 -3 3 -60 c5
-104 5 -105 -93 -105 l-85 0 0 85 0 85 -90 0 -90 0 0 -85 0 -85 -445 0 -445 0
0 -90 0 -90 -90 0 -91 0 3 88 3 87 88 3 87 3 0 84 0 85 -74 0 c-108 0 -106 -2
-106 96 l0 84 90 0 90 0 0 -90 0 -91 88 3 87 3 3 178 2 177 -90 0 -91 0 3 88
3 87 88 3 88 3 -3 87 -3 87 -87 3 -88 3 0 85 0 84 178 -2 177 -3 3 -150z
m8180 -642 l-3 -88 -80 0 -80 0 -3 88 -3 87 86 0 86 0 -3 -87z m-173 -353 l0
-85 -87 -3 -88 -3 0 91 0 91 88 -3 87 -3 0 -85z m-2137 -177 l-3 -88 -87 -3
-88 -3 0 84 c0 46 3 87 7 90 3 4 44 7 90 7 l84 0 -3 -87z m1250 0 l-3 -88
-177 -3 -178 -2 0 -180 0 -180 -90 0 -90 0 0 -175 0 -175 -175 0 -175 0 0 -90
0 -90 175 0 175 0 0 -90 0 -90 -175 0 -175 0 0 90 0 90 -90 0 -89 0 -3 -87 -3
-88 -87 -3 -88 -3 0 91 0 90 90 0 89 0 3 88 3 87 88 3 87 3 0 89 0 90 85 0 84
0 3 83 3 82 88 3 87 3 0 89 0 89 -87 3 -88 3 -3 88 -3 87 91 0 90 0 0 90 0 90
270 0 271 0 -3 -87z m-5520 -275 l2 -178 -74 0 c-41 0 -81 3 -90 6 -14 5 -16
31 -16 180 l0 175 88 -3 87 -3 3 -177z m6410 89 l3 -88 -88 3 -88 3 -3 88 -3
88 88 -3 88 -3 3 -88z m-3918 -352 l0 -265 -265 0 -265 0 0 265 0 265 265 0
265 0 0 -265z m3560 0 l0 -265 -265 0 -265 0 0 265 0 265 265 0 265 0 0 -265z
m-2312 -267 l2 -178 175 0 175 0 0 -90 0 -90 -175 0 -175 0 0 90 0 90 -90 0
-90 0 0 -90 0 -90 -90 0 -90 0 0 -175 0 -175 -90 0 -90 0 0 85 0 85 -90 0 -90
0 0 90 0 90 -85 0 -84 0 -3 88 -3 87 -87 3 -88 3 0 89 0 90 265 0 265 0 0 90
0 90 268 -2 267 -3 3 -177z m2312 -268 l0 -90 -90 0 -90 0 0 83 c0 46 3 87 7
90 3 4 44 7 90 7 l83 0 0 -90z m-3380 -265 l0 -175 -90 0 -90 0 0 85 0 84 -87
3 -88 3 -3 88 -3 87 181 0 180 0 0 -175z"/>
<path d="M7560 10190 l0 -90 85 0 85 0 0 90 0 90 -85 0 -85 0 0 -90z"/>
<path d="M7560 9830 l0 -90 85 0 85 0 0 90 0 90 -85 0 -85 0 0 -90z"/>
<path d="M4172 10013 l3 -88 88 -3 87 -3 0 91 0 90 -90 0 -91 0 3 -87z"/>
<path d="M3462 9478 l3 -263 85 0 85 0 5 85 5 85 88 3 87 3 0 87 0 88 88 -1
87 0 3 -87 3 -88 84 0 85 0 0 89 0 89 73 0 c39 0 80 0 90 1 15 1 17 12 17 86
l0 86 -87 -3 -88 -3 -3 -82 c-2 -56 -7 -83 -15 -84 -7 0 -30 -2 -52 -3 -22 -2
-55 -1 -72 2 l-33 4 0 68 c0 102 2 100 -96 100 l-84 0 0 -85 c0 -61 -4 -85
-12 -86 -7 0 -31 -2 -53 -3 -22 -2 -57 -1 -77 2 l-38 5 0 83 0 84 -90 0 -90 0
2 -262z"/>
<path d="M5240 9655 l0 -85 90 0 90 0 0 85 0 85 -90 0 -90 0 0 -85z"/>
<path d="M5957 9733 c-4 -3 -7 -41 -7 -84 l0 -78 33 -3 c17 -2 58 -1 90 0 l57
4 0 84 0 84 -83 0 c-46 0 -87 -3 -90 -7z"/>
<path d="M2040 7700 l0 -90 90 0 90 0 0 -90 0 -90 175 0 175 0 0 90 0 90 -175
0 -175 0 0 78 c0 47 -5 83 -12 90 -7 7 -43 12 -90 12 l-78 0 0 -90z"/>
<path d="M2930 7520 l0 -91 88 3 87 3 3 88 3 87 -91 0 -90 0 0 -90z"/>
<path d="M2227 6894 c-4 -4 -7 -45 -7 -91 l0 -83 175 0 176 0 -3 88 -3 87
-166 3 c-91 1 -168 -1 -172 -4z"/>
<path d="M3282 6273 l3 -88 85 0 85 0 3 88 3 87 -91 0 -91 0 3 -87z"/>
<path d="M3640 4315 l0 -85 90 0 90 0 0 85 0 85 -90 0 -90 0 0 -85z"/>
<path d="M4357 3863 c-4 -3 -7 -44 -7 -90 l0 -83 -90 0 -90 0 0 -84 c0 -98 -2
-96 106 -96 l74 0 0 90 0 90 90 0 90 0 0 90 0 90 -83 0 c-46 0 -87 -3 -90 -7z"/>
<path d="M3640 3600 l0 -90 168 0 c117 0 172 4 180 12 7 7 12 43 12 90 l0 78
-180 0 -180 0 0 -90z"/>
<path d="M6130 6810 l0 -90 90 0 91 0 -3 88 -3 87 -87 3 -88 3 0 -91z"/>
<path d="M5242 6273 l3 -88 85 0 85 0 3 88 3 87 -91 0 -91 0 3 -87z"/>
<path d="M6672 6273 l3 -88 82 -3 82 -3 3 -82 3 -82 88 -3 87 -3 0 86 0 85
-90 0 -90 0 0 90 0 90 -85 0 -86 0 3 -87z"/>
<path d="M7200 6005 l0 -175 -265 0 -264 0 -3 -87 -3 -88 -87 -3 -88 -3 0 -89
0 -90 175 0 175 0 0 -90 0 -90 -85 0 -84 0 -3 -82 -3 -83 -87 -3 -88 -3 0 -89
0 -89 88 -3 87 -3 0 -85 0 -85 -88 -3 -87 -3 2 -177 3 -177 85 0 85 0 3 88 3
87 84 0 85 0 2 178 3 177 177 3 178 2 2 -177 3 -178 88 -3 87 -3 0 91 0 90 90
0 90 0 0 90 0 90 85 0 85 0 0 90 0 90 180 0 180 0 -2 263 -3 262 -177 3 -178
2 0 90 0 90 -85 0 -85 0 0 -90 0 -90 -90 0 -90 0 0 265 0 265 -90 0 -90 0 0
-175z m-182 -442 l-3 -88 -87 -3 -88 -3 0 84 c0 46 3 87 7 90 3 4 44 7 90 7
l84 0 -3 -87z m712 -178 l0 -264 -82 -3 -83 -3 -3 -87 -3 -88 -180 0 -180 0 3
88 3 87 88 3 87 3 0 174 0 174 88 3 87 3 3 88 3 87 84 0 85 0 0 -265z m-710
-180 l0 -86 -87 3 -88 3 -3 83 -3 82 91 0 90 0 0 -85z"/>
<path d="M5780 4760 l0 -180 85 0 85 0 0 180 0 180 -85 0 -85 0 0 -180z"/>
<path d="M6134 4927 c-3 -8 -4 -47 -2 -88 l3 -74 85 0 85 0 0 85 0 85 -83 3
c-63 2 -84 0 -88 -11z"/>
<path d="M7200 3960 l0 -89 -87 -3 -88 -3 -3 -87 -3 -88 -174 0 -175 0 0 -90
0 -90 175 0 175 0 0 90 0 89 88 3 87 3 3 87 3 87 87 3 87 3 3 88 3 87 -91 0
-90 0 0 -90z"/>
<path d="M7380 3600 l0 -90 90 0 90 0 0 90 0 90 -90 0 -90 0 0 -90z"/>
<path d="M2394 6167 c-3 -8 -4 -45 -2 -83 l3 -69 88 -3 87 -3 0 86 0 85 -85 0
c-63 0 -87 -4 -91 -13z"/>
<path d="M5954 6167 c-3 -8 -4 -45 -2 -83 l3 -69 88 -3 87 -3 0 86 0 85 -85 0
c-63 0 -87 -4 -91 -13z"/>
<path d="M9514 6167 c-3 -8 -4 -45 -2 -83 l3 -69 88 -3 87 -3 0 86 0 85 -85 0
c-63 0 -87 -4 -91 -13z"/>
<path d="M2220 3605 c0 -103 -12 -97 195 -93 l150 3 3 88 3 87 -176 0 -175 0
0 -85z"/>
<path d="M5954 2607 c-3 -8 -4 -45 -2 -83 l3 -69 88 -3 87 -3 0 86 0 85 -85 0
c-63 0 -87 -4 -91 -13z"/>
<path d="M9514 2607 c-3 -8 -4 -45 -2 -83 l3 -69 88 -3 87 -3 0 86 0 85 -85 0
c-63 0 -87 -4 -91 -13z"/>
<path d="M7204 2257 c-3 -8 -4 -47 -2 -88 l3 -74 88 -3 88 -3 -3 88 -3 88 -83
3 c-63 2 -84 0 -88 -11z"/>
<path d="M6847 2083 c-4 -3 -7 -44 -7 -90 l0 -84 88 3 87 3 3 88 3 87 -84 0
c-46 0 -87 -3 -90 -7z"/>
<path d="M4002 10723 l3 -88 80 0 80 0 3 88 3 87 -86 0 -86 0 3 -87z"/>
<path d="M5422 10723 l3 -88 85 0 85 0 0 85 0 85 -88 3 -88 3 3 -88z"/>
<path d="M9515 10798 c-3 -7 -4 -285 -3 -618 l3 -605 623 -3 622 -2 0 620 0
620 -620 0 c-487 0 -622 -3 -625 -12z m1063 -610 l-3 -443 -440 0 -440 0 -3
443 -2 442 445 0 445 0 -2 -442z"/>
<path d="M9874 10445 c-2 -6 -3 -125 -2 -265 l3 -255 263 -3 262 -2 0 265 c0
205 -3 265 -12 265 -7 0 -125 1 -262 3 -170 2 -249 0 -252 -8z"/>
<path d="M8270 10547 l0 -85 28 -3 c15 -2 54 -2 87 1 l60 5 0 80 0 80 -87 3
-88 3 0 -84z"/>
<path d="M6676 10452 c-3 -3 -6 -43 -6 -89 l0 -83 85 0 85 0 0 85 c0 61 -4 85
-12 86 -44 6 -147 6 -152 1z"/>
<path d="M9160 9657 l0 -85 28 -3 c15 -2 54 -2 87 1 l60 5 0 80 0 80 -87 3
-88 3 0 -84z"/>
<path d="M7198 8943 l-3 -88 -87 -3 -88 -3 0 -84 0 -85 -47 -1 c-27 0 -66 -1
-88 -2 l-40 -2 0 -85 0 -85 88 -3 87 -3 0 91 0 90 180 0 180 0 -2 173 -3 172
-87 3 -87 3 -3 -88z"/>
<path d="M5780 8765 l0 -85 85 0 85 0 0 85 0 85 -85 0 -85 0 0 -85z"/>
<path d="M4723 8673 c-9 -3 -13 -31 -13 -89 l0 -85 88 3 87 3 3 73 c4 95 -2
102 -87 101 -36 0 -72 -3 -78 -6z"/>
<path d="M7566 8673 c-3 -3 -6 -44 -6 -90 l0 -83 85 0 86 0 -3 88 -3 87 -76 2
c-42 1 -79 -1 -83 -4z"/>
<path d="M7207 8494 c-4 -4 -7 -45 -7 -91 l0 -84 88 3 87 3 0 85 0 85 -80 3
c-45 1 -84 0 -88 -4z"/>
<path d="M10230 7785 l0 -175 85 0 85 0 0 -90 0 -90 -85 0 -85 0 0 -90 0 -90
85 0 86 0 -3 -87 -3 -88 -82 -3 -83 -3 0 -84 0 -85 159 0 c88 0 166 -3 175 -6
14 -5 16 -31 16 -180 l0 -175 -87 3 -88 3 -3 88 -3 87 -84 0 -85 0 0 -180 0
-180 263 2 262 3 3 352 2 352 -87 3 -88 3 -3 352 -2 353 -23 5 c-12 3 -51 6
-87 7 l-65 3 -3 83 -3 82 -84 0 -85 0 0 -175z"/>
<path d="M5422 7343 l3 -88 175 0 175 0 0 85 0 85 -178 3 -178 2 3 -87z"/>
<path d="M9347 6894 c-4 -4 -7 -45 -7 -91 l0 -83 175 0 176 0 -3 88 -3 87
-166 3 c-91 1 -168 -1 -172 -4z"/>
<path d="M9877 6893 c-4 -3 -7 -44 -7 -90 l0 -83 90 0 90 0 0 84 c0 67 -3 85
-16 90 -21 8 -149 8 -157 -1z"/>
<path d="M1332 4493 l3 -88 80 0 80 0 3 88 3 87 -86 0 -86 0 3 -87z"/>
<path d="M5602 3603 l3 -88 82 -3 c96 -3 96 -3 91 108 l-3 65 -88 3 -88 3 3
-88z"/>
<path d="M8272 3603 l3 -88 65 -3 c111 -5 111 -5 108 91 l-3 82 -88 3 -88 3 3
-88z"/>
<path d="M9340 3425 l0 -85 175 0 175 0 0 85 0 85 -175 0 -175 0 0 -85z"/>
<path d="M2394 2967 c-3 -8 -4 -47 -2 -88 l3 -74 178 -3 177 -2 0 -84 c0 -67
3 -85 16 -90 9 -3 85 -6 169 -6 181 0 178 -2 173 108 l-3 67 -177 3 -177 2 -3
88 -3 87 -173 3 c-138 2 -173 0 -178 -11z"/>
<path d="M1330 2000 l0 -620 620 0 620 0 0 620 0 620 -620 0 -620 0 0 -620z
m1058 2 l2 -442 -442 2 -443 3 -3 430 c-1 237 0 436 3 443 3 10 97 12 442 10
l438 -3 3 -443z"/>
<path d="M1687 2263 c-4 -3 -7 -122 -7 -264 0 -225 2 -258 16 -263 9 -3 125
-6 259 -6 233 0 245 1 255 20 7 12 9 108 8 267 l-3 248 -261 3 c-143 1 -263
-1 -267 -5z"/>
<path d="M3464 1547 c-3 -8 -4 -47 -2 -88 l3 -74 88 -3 88 -3 -3 88 -3 88 -83
3 c-63 2 -84 0 -88 -11z"/>
</g>
</svg>
